<svg width="333" height="58" viewBox="0 0 333 58" fill="none" xmlns="http://www.w3.org/2000/svg">
<g filter="url(#filter0_d_5_4)">
<path d="M60.2891 16.1875C58.8203 16.1875 57.4297 16.2422 56.1172 16.3516C54.8203 16.4609 53.6328 16.5859 52.5547 16.7266C51.4922 16.8672 50.5625 17.0078 49.7656 17.1484C48.9844 17.2734 48.3828 17.3672 47.9609 17.4297C47.9609 17.4141 47.9375 17.3125 47.8906 17.125C47.8594 16.9375 47.8125 16.6953 47.75 16.3984C47.6875 16.1016 47.6328 15.7891 47.5859 15.4609C47.5391 15.1172 47.5156 14.8203 47.5156 14.5703C47.5156 14.0547 47.7422 13.6797 48.1953 13.4453C48.6641 13.1953 49.2969 13.0312 50.0938 12.9531C50.8906 12.8594 51.8203 12.8281 52.8828 12.8594C53.9453 12.875 55.0859 12.8828 56.3047 12.8828H63.1719C63.8906 12.8828 64.7734 12.8828 65.8203 12.8828C66.8672 12.8828 68.0312 12.8594 69.3125 12.8125C70.6094 12.7656 71.9922 12.6875 73.4609 12.5781C74.9453 12.4687 76.4609 12.3125 78.0078 12.1094C78.0078 12.125 78.0312 12.2109 78.0781 12.3672C78.125 12.5078 78.1719 12.7031 78.2188 12.9531C78.2656 13.1875 78.3125 13.4609 78.3594 13.7734C78.4062 14.0703 78.4297 14.3828 78.4297 14.7109C78.4297 15.1016 78.2891 15.4063 78.0078 15.625C77.7422 15.8437 77.3828 16.0078 76.9297 16.1172C76.4766 16.2109 75.9531 16.2734 75.3594 16.3047C74.7812 16.3203 74.1719 16.3281 73.5312 16.3281C71.75 16.3281 70.2422 16.3125 69.0078 16.2812C67.7734 16.25 66.7109 16.2188 65.8203 16.1875V38.6172C65.8203 39.6172 65.8438 40.5 65.8906 41.2656C65.9531 42.0312 66.0234 42.7031 66.1016 43.2812C66.1797 43.8438 66.2578 44.3203 66.3359 44.7109C66.4141 45.0859 66.4766 45.3906 66.5234 45.625C66.2891 45.75 66.0312 45.8672 65.75 45.9766C65.4688 46.0703 65.1719 46.1484 64.8594 46.2109C64.5625 46.2891 64.2656 46.3438 63.9688 46.375C63.6719 46.4062 63.3906 46.4219 63.125 46.4219C62.7188 46.4219 62.3359 46.3828 61.9766 46.3047C61.6328 46.2266 61.3359 46.1016 61.0859 45.9297C60.8359 45.7422 60.6406 45.5 60.5 45.2031C60.3594 44.9062 60.2891 44.5312 60.2891 44.0781V16.1875ZM95.4922 32.3125C95.5859 32 95.6484 31.6875 95.6797 31.375C95.7109 31.0625 95.7266 30.7344 95.7266 30.3906C95.7266 29.625 95.5938 28.8594 95.3281 28.0938C95.0781 27.3125 94.7031 26.6094 94.2031 25.9844C93.7188 25.3594 93.1094 24.8516 92.375 24.4609C91.6562 24.0703 90.8281 23.875 89.8906 23.875C88.6875 23.875 87.6797 24.1094 86.8672 24.5781C86.0703 25.0312 85.4141 25.6484 84.8984 26.4297C84.3984 27.1953 84.0312 28.0938 83.7969 29.125C83.5625 30.1406 83.4141 31.2031 83.3516 32.3125H95.4922ZM77.8906 34C77.8906 32.1406 78.1875 30.4375 78.7812 28.8906C79.3906 27.3281 80.2578 25.9844 81.3828 24.8594C82.5234 23.7344 83.9141 22.8594 85.5547 22.2344C87.1953 21.5938 89.0547 21.2734 91.1328 21.2734C92.6953 21.2734 94.0938 21.5234 95.3281 22.0234C96.5625 22.5234 97.6094 23.1953 98.4688 24.0391C99.3281 24.8828 99.9844 25.8594 100.438 26.9688C100.891 28.0781 101.117 29.2344 101.117 30.4375C101.117 31 101.07 31.5625 100.977 32.125C100.883 32.6875 100.703 33.1953 100.438 33.6484C100.172 34.1016 99.7969 34.4766 99.3125 34.7734C98.8281 35.0547 98.1953 35.1953 97.4141 35.1953H83.3984C83.5547 36.6016 83.9219 37.8438 84.5 38.9219C85.0781 40 85.8203 40.9141 86.7266 41.6641C87.6328 42.3984 88.6797 42.9531 89.8672 43.3281C91.0547 43.7031 92.3359 43.8906 93.7109 43.8906C94.6484 43.8906 95.6172 43.8125 96.6172 43.6562C97.6172 43.4844 98.6484 43.2266 99.7109 42.8828L100.484 44.4531C99.8438 44.8906 99.1562 45.2656 98.4219 45.5781C97.6875 45.8906 96.9297 46.1406 96.1484 46.3281C95.3672 46.5312 94.5703 46.6797 93.7578 46.7734C92.9453 46.8672 92.1484 46.9141 91.3672 46.9141C89.6484 46.9141 87.9766 46.6406 86.3516 46.0938C84.7422 45.5625 83.3047 44.7578 82.0391 43.6797C80.7891 42.6016 79.7812 41.2578 79.0156 39.6484C78.2656 38.0391 77.8906 36.1562 77.8906 34ZM125.609 26.9922C125.094 26.6953 124.523 26.375 123.898 26.0312C123.273 25.6875 122.617 25.375 121.93 25.0938C121.258 24.7969 120.57 24.5547 119.867 24.3672C119.164 24.1641 118.469 24.0625 117.781 24.0625C116.719 24.0625 115.812 24.3281 115.062 24.8594C114.328 25.375 113.719 26.0547 113.234 26.8984C112.766 27.7266 112.422 28.6484 112.203 29.6641C111.984 30.6797 111.875 31.6797 111.875 32.6641C111.875 34.1953 112.078 35.6328 112.484 36.9766C112.891 38.3203 113.516 39.4922 114.359 40.4922C115.203 41.4922 116.266 42.2812 117.547 42.8594C118.828 43.4219 120.344 43.7031 122.094 43.7031C123.062 43.7031 124.055 43.6172 125.07 43.4453C126.102 43.2734 127.156 43.0234 128.234 42.6953L129.008 44.2656C128.367 44.7031 127.672 45.0781 126.922 45.3906C126.172 45.7031 125.398 45.9531 124.602 46.1406C123.805 46.3438 123 46.4922 122.188 46.5859C121.375 46.6797 120.578 46.7266 119.797 46.7266C118.094 46.7266 116.438 46.4609 114.828 45.9297C113.234 45.3828 111.812 44.5938 110.562 43.5625C109.328 42.5156 108.336 41.2266 107.586 39.6953C106.836 38.1641 106.461 36.4062 106.461 34.4219C106.461 32.375 106.82 30.5391 107.539 28.9141C108.273 27.2891 109.273 25.9141 110.539 24.7891C111.82 23.6484 113.328 22.7812 115.062 22.1875C116.812 21.5781 118.711 21.2734 120.758 21.2734C120.914 21.2734 121.188 21.2891 121.578 21.3203C121.969 21.3359 122.406 21.375 122.891 21.4375C123.391 21.4844 123.906 21.5625 124.438 21.6719C124.969 21.7656 125.453 21.8906 125.891 22.0469C126.328 22.2031 126.688 22.3906 126.969 22.6094C127.25 22.8281 127.391 23.0859 127.391 23.3828C127.391 23.4609 127.383 23.5469 127.367 23.6406C127.367 23.7188 127.336 23.7969 127.273 23.875L125.609 26.9922ZM131.234 10.9609C131.562 10.8203 132.023 10.6875 132.617 10.5625C133.211 10.4375 133.859 10.3359 134.562 10.2578C135.266 10.1797 135.984 10.1172 136.719 10.0703C137.469 10.0234 138.148 10 138.758 10C139.086 10 139.375 10.0078 139.625 10.0234C139.875 10.0391 140.086 10.0859 140.258 10.1641C140.43 10.2422 140.555 10.3672 140.633 10.5391C140.727 10.6953 140.773 10.9297 140.773 11.2422V23.9688C140.867 23.9375 141.07 23.8516 141.383 23.7109C141.711 23.5703 142.109 23.3984 142.578 23.1953C143.047 22.9922 143.586 22.7812 144.195 22.5625C144.805 22.3281 145.453 22.1094 146.141 21.9062C146.828 21.7031 147.531 21.5391 148.25 21.4141C148.984 21.2891 149.711 21.2266 150.43 21.2266C151.836 21.2266 152.977 21.4141 153.852 21.7891C154.727 22.1484 155.406 22.6641 155.891 23.3359C156.391 23.9922 156.727 24.7812 156.898 25.7031C157.07 26.6094 157.156 27.6016 157.156 28.6797V43.6562H161.234V45.4141C160.969 45.5547 160.602 45.6875 160.133 45.8125C159.68 45.9375 159.172 46.0469 158.609 46.1406C158.047 46.2344 157.461 46.3047 156.852 46.3516C156.242 46.3984 155.656 46.4219 155.094 46.4219C154.609 46.4219 154.164 46.3906 153.758 46.3281C153.352 46.2812 152.992 46.1719 152.68 46C152.383 45.8438 152.148 45.625 151.977 45.3438C151.805 45.0469 151.719 44.6562 151.719 44.1719V29.1484C151.719 28.3516 151.672 27.6719 151.578 27.1094C151.5 26.5469 151.336 26.0859 151.086 25.7266C150.852 25.3672 150.523 25.1094 150.102 24.9531C149.68 24.7812 149.133 24.6953 148.461 24.6953C147.805 24.6953 147.055 24.7656 146.211 24.9062C145.367 25.0312 144.562 25.1797 143.797 25.3516C143.031 25.5234 142.359 25.6875 141.781 25.8438C141.219 25.9844 140.883 26.0625 140.773 26.0781V38.9453C140.773 39.9141 140.797 40.7656 140.844 41.5C140.906 42.2344 140.969 42.875 141.031 43.4219C141.109 43.9688 141.188 44.4297 141.266 44.8047C141.344 45.1641 141.406 45.4531 141.453 45.6719C141.234 45.7969 140.984 45.9062 140.703 46C140.422 46.0781 140.125 46.1484 139.812 46.2109C139.516 46.2891 139.219 46.3438 138.922 46.375C138.625 46.4062 138.352 46.4219 138.102 46.4219C137.695 46.4219 137.328 46.3828 137 46.3047C136.672 46.2422 136.383 46.125 136.133 45.9531C135.883 45.7812 135.688 45.5547 135.547 45.2734C135.422 44.9766 135.359 44.6094 135.359 44.1719V12.7422H131.234V10.9609ZM172.461 16.1875C170.992 16.1875 169.602 16.2422 168.289 16.3516C166.992 16.4609 165.805 16.5859 164.727 16.7266C163.664 16.8672 162.734 17.0078 161.938 17.1484C161.156 17.2734 160.555 17.3672 160.133 17.4297C160.133 17.4141 160.109 17.3125 160.062 17.125C160.031 16.9375 159.984 16.6953 159.922 16.3984C159.859 16.1016 159.805 15.7891 159.758 15.4609C159.711 15.1172 159.688 14.8203 159.688 14.5703C159.688 14.0547 159.914 13.6797 160.367 13.4453C160.836 13.1953 161.469 13.0312 162.266 12.9531C163.062 12.8594 163.992 12.8281 165.055 12.8594C166.117 12.875 167.258 12.8828 168.477 12.8828H175.344C176.062 12.8828 176.945 12.8828 177.992 12.8828C179.039 12.8828 180.203 12.8594 181.484 12.8125C182.781 12.7656 184.164 12.6875 185.633 12.5781C187.117 12.4687 188.633 12.3125 190.18 12.1094C190.18 12.125 190.203 12.2109 190.25 12.3672C190.297 12.5078 190.344 12.7031 190.391 12.9531C190.438 13.1875 190.484 13.4609 190.531 13.7734C190.578 14.0703 190.602 14.3828 190.602 14.7109C190.602 15.1016 190.461 15.4063 190.18 15.625C189.914 15.8437 189.555 16.0078 189.102 16.1172C188.648 16.2109 188.125 16.2734 187.531 16.3047C186.953 16.3203 186.344 16.3281 185.703 16.3281C183.922 16.3281 182.414 16.3125 181.18 16.2812C179.945 16.25 178.883 16.2188 177.992 16.1875V38.6172C177.992 39.6172 178.016 40.5 178.062 41.2656C178.125 42.0312 178.195 42.7031 178.273 43.2812C178.352 43.8438 178.43 44.3203 178.508 44.7109C178.586 45.0859 178.648 45.3906 178.695 45.625C178.461 45.75 178.203 45.8672 177.922 45.9766C177.641 46.0703 177.344 46.1484 177.031 46.2109C176.734 46.2891 176.438 46.3438 176.141 46.375C175.844 46.4062 175.562 46.4219 175.297 46.4219C174.891 46.4219 174.508 46.3828 174.148 46.3047C173.805 46.2266 173.508 46.1016 173.258 45.9297C173.008 45.7422 172.812 45.5 172.672 45.2031C172.531 44.9062 172.461 44.5312 172.461 44.0781V16.1875ZM189.359 22.6328C189.688 22.4922 190.148 22.3594 190.742 22.2344C191.336 22.1094 191.984 22.0078 192.688 21.9297C193.406 21.8516 194.133 21.7891 194.867 21.7422C195.617 21.6953 196.297 21.6719 196.906 21.6719C197.234 21.6719 197.523 21.6797 197.773 21.6953C198.023 21.7109 198.234 21.7578 198.406 21.8359C198.578 21.9141 198.703 22.0391 198.781 22.2109C198.875 22.3672 198.922 22.6016 198.922 22.9141V28.5391L201.898 24.2969C202.648 23.2656 203.477 22.5078 204.383 22.0234C205.305 21.5234 206.344 21.2734 207.5 21.2734C207.703 21.2734 207.961 21.2891 208.273 21.3203C208.602 21.3359 208.914 21.3906 209.211 21.4844C209.523 21.5781 209.789 21.7109 210.008 21.8828C210.227 22.0547 210.336 22.2891 210.336 22.5859C210.336 22.6641 210.336 22.7266 210.336 22.7734C210.336 22.8203 210.32 22.8828 210.289 22.9609L209.281 26.2656C208.688 26.0781 208.148 25.9453 207.664 25.8672C207.195 25.7891 206.758 25.75 206.352 25.75C205.508 25.75 204.703 25.9922 203.938 26.4766C203.172 26.9453 202.469 27.5078 201.828 28.1641C201.188 28.8047 200.617 29.4609 200.117 30.1328C199.633 30.7891 199.234 31.2969 198.922 31.6562V38.9453C198.922 39.9141 198.945 40.7656 198.992 41.5C199.039 42.2344 199.094 42.875 199.156 43.4219C199.234 43.9688 199.312 44.4297 199.391 44.8047C199.469 45.1641 199.531 45.4531 199.578 45.6719C199.359 45.7969 199.109 45.9062 198.828 46C198.562 46.0781 198.273 46.1484 197.961 46.2109C197.664 46.2891 197.359 46.3438 197.047 46.375C196.75 46.4062 196.477 46.4219 196.227 46.4219C195.82 46.4219 195.453 46.3828 195.125 46.3047C194.797 46.2422 194.508 46.125 194.258 45.9531C194.008 45.7812 193.812 45.5547 193.672 45.2734C193.547 44.9766 193.484 44.6094 193.484 44.1719V24.3906H189.359V22.6328ZM231.055 32.3125C231.148 32 231.211 31.6875 231.242 31.375C231.273 31.0625 231.289 30.7344 231.289 30.3906C231.289 29.625 231.156 28.8594 230.891 28.0938C230.641 27.3125 230.266 26.6094 229.766 25.9844C229.281 25.3594 228.672 24.8516 227.938 24.4609C227.219 24.0703 226.391 23.875 225.453 23.875C224.25 23.875 223.242 24.1094 222.43 24.5781C221.633 25.0312 220.977 25.6484 220.461 26.4297C219.961 27.1953 219.594 28.0938 219.359 29.125C219.125 30.1406 218.977 31.2031 218.914 32.3125H231.055ZM213.453 34C213.453 32.1406 213.75 30.4375 214.344 28.8906C214.953 27.3281 215.82 25.9844 216.945 24.8594C218.086 23.7344 219.477 22.8594 221.117 22.2344C222.758 21.5938 224.617 21.2734 226.695 21.2734C228.258 21.2734 229.656 21.5234 230.891 22.0234C232.125 22.5234 233.172 23.1953 234.031 24.0391C234.891 24.8828 235.547 25.8594 236 26.9688C236.453 28.0781 236.68 29.2344 236.68 30.4375C236.68 31 236.633 31.5625 236.539 32.125C236.445 32.6875 236.266 33.1953 236 33.6484C235.734 34.1016 235.359 34.4766 234.875 34.7734C234.391 35.0547 233.758 35.1953 232.977 35.1953H218.961C219.117 36.6016 219.484 37.8438 220.062 38.9219C220.641 40 221.383 40.9141 222.289 41.6641C223.195 42.3984 224.242 42.9531 225.43 43.3281C226.617 43.7031 227.898 43.8906 229.273 43.8906C230.211 43.8906 231.18 43.8125 232.18 43.6562C233.18 43.4844 234.211 43.2266 235.273 42.8828L236.047 44.4531C235.406 44.8906 234.719 45.2656 233.984 45.5781C233.25 45.8906 232.492 46.1406 231.711 46.3281C230.93 46.5312 230.133 46.6797 229.32 46.7734C228.508 46.8672 227.711 46.9141 226.93 46.9141C225.211 46.9141 223.539 46.6406 221.914 46.0938C220.305 45.5625 218.867 44.7578 217.602 43.6797C216.352 42.6016 215.344 41.2578 214.578 39.6484C213.828 38.0391 213.453 36.1562 213.453 34ZM245.047 24.3438H240.922V22.5859C241.25 22.4453 241.711 22.3125 242.305 22.1875C242.898 22.0625 243.547 21.9609 244.25 21.8828C244.969 21.8047 245.695 21.7422 246.43 21.6953C247.18 21.6484 247.859 21.625 248.469 21.625C248.797 21.625 249.086 21.6328 249.336 21.6484C249.586 21.6641 249.797 21.7109 249.969 21.7891C250.141 21.8672 250.266 21.9922 250.344 22.1641C250.438 22.3203 250.484 22.5547 250.484 22.8672V24.0156C250.719 23.9375 251.148 23.75 251.773 23.4531C252.414 23.1562 253.188 22.8516 254.094 22.5391C255 22.2109 255.992 21.9219 257.07 21.6719C258.148 21.4062 259.25 21.2734 260.375 21.2734C261.734 21.2734 262.836 21.4609 263.68 21.8359C264.523 22.2109 265.18 22.7344 265.648 23.4062C266.117 24.0625 266.43 24.8438 266.586 25.75C266.758 26.6562 266.844 27.6484 266.844 28.7266V43.6562H270.922V45.4141C270.656 45.5547 270.289 45.6875 269.82 45.8125C269.367 45.9375 268.859 46.0469 268.297 46.1406C267.734 46.2344 267.148 46.3047 266.539 46.3516C265.93 46.3984 265.344 46.4219 264.781 46.4219C264.297 46.4219 263.852 46.3906 263.445 46.3281C263.039 46.2812 262.688 46.1719 262.391 46C262.094 45.8438 261.859 45.625 261.688 45.3438C261.516 45.0469 261.43 44.6562 261.43 44.1719V29.1953C261.43 28.3984 261.383 27.7188 261.289 27.1562C261.211 26.5938 261.047 26.1328 260.797 25.7734C260.562 25.4141 260.227 25.1562 259.789 25C259.367 24.8281 258.82 24.7422 258.148 24.7422C257.711 24.7422 257.227 24.7734 256.695 24.8359C256.18 24.8984 255.641 24.9844 255.078 25.0938C254.531 25.1875 253.992 25.2891 253.461 25.3984C252.945 25.5078 252.469 25.6172 252.031 25.7266C251.609 25.8203 251.258 25.9062 250.977 25.9844C250.695 26.0625 250.531 26.1094 250.484 26.125V38.9453C250.484 39.9141 250.508 40.7656 250.555 41.5C250.602 42.2344 250.656 42.875 250.719 43.4219C250.797 43.9688 250.875 44.4297 250.953 44.8047C251.031 45.1641 251.094 45.4531 251.141 45.6719C250.922 45.7969 250.672 45.9062 250.391 46C250.125 46.0781 249.836 46.1484 249.523 46.2109C249.227 46.2891 248.922 46.3438 248.609 46.375C248.312 46.4062 248.039 46.4219 247.789 46.4219C247.383 46.4219 247.016 46.3828 246.688 46.3047C246.359 46.2422 246.07 46.125 245.82 45.9531C245.57 45.7812 245.375 45.5547 245.234 45.2734C245.109 44.9766 245.047 44.6094 245.047 44.1719V24.3438ZM293.797 26.2188C293.328 25.9688 292.852 25.7188 292.367 25.4688C291.883 25.2188 291.367 25 290.82 24.8125C290.289 24.6094 289.711 24.4531 289.086 24.3438C288.461 24.2188 287.773 24.1562 287.023 24.1562C285.961 24.1562 285.047 24.4062 284.281 24.9062C283.531 25.4062 282.914 26.1016 282.43 26.9922C281.961 27.8828 281.617 28.9531 281.398 30.2031C281.18 31.4375 281.07 32.7969 281.07 34.2812C281.07 35.7969 281.211 37.1484 281.492 38.3359C281.773 39.5078 282.18 40.5078 282.711 41.3359C283.242 42.1484 283.891 42.7734 284.656 43.2109C285.438 43.6328 286.328 43.8438 287.328 43.8438C288.5 43.8438 289.656 43.5938 290.797 43.0938C291.953 42.5781 292.953 41.8984 293.797 41.0547V26.2188ZM293.797 12.7422H289.672V10.9609C290 10.8203 290.461 10.6875 291.055 10.5625C291.648 10.4375 292.297 10.3359 293 10.2578C293.719 10.1797 294.445 10.1172 295.18 10.0703C295.93 10.0234 296.609 10 297.219 10C297.547 10 297.836 10.0078 298.086 10.0234C298.336 10.0391 298.547 10.0859 298.719 10.1641C298.891 10.2422 299.016 10.3672 299.094 10.5391C299.188 10.6953 299.234 10.9297 299.234 11.2422V43.6562H303.312V45.4141C303.047 45.5547 302.68 45.6875 302.211 45.8125C301.758 45.9375 301.25 46.0469 300.688 46.1406C300.125 46.2344 299.539 46.3047 298.93 46.3516C298.32 46.3984 297.734 46.4219 297.172 46.4219C296.688 46.4219 296.242 46.3906 295.836 46.3281C295.43 46.2812 295.07 46.1719 294.758 46C294.461 45.8438 294.227 45.625 294.055 45.3438C293.883 45.0469 293.797 44.6562 293.797 44.1719V43.7969C293.641 43.9062 293.344 44.125 292.906 44.4531C292.469 44.7656 291.914 45.0938 291.242 45.4375C290.586 45.7656 289.812 46.0625 288.922 46.3281C288.047 46.5938 287.094 46.7266 286.062 46.7266C284.422 46.7266 282.938 46.3984 281.609 45.7422C280.281 45.0703 279.148 44.1641 278.211 43.0234C277.273 41.8672 276.547 40.5234 276.031 38.9922C275.531 37.4609 275.281 35.8281 275.281 34.0938C275.281 32.1875 275.492 30.4453 275.914 28.8672C276.352 27.2891 277.008 25.9375 277.883 24.8125C278.773 23.6875 279.883 22.8203 281.211 22.2109C282.539 21.5859 284.094 21.2734 285.875 21.2734C287.25 21.2734 288.609 21.4688 289.953 21.8594C291.312 22.2344 292.594 22.8594 293.797 23.7344V12.7422ZM309.43 40.3281C309.852 40.6406 310.359 41.0156 310.953 41.4531C311.562 41.8906 312.227 42.3125 312.945 42.7188C313.664 43.1094 314.422 43.4531 315.219 43.75C316.031 44.0312 316.852 44.1719 317.68 44.1719C318.195 44.1719 318.688 44.1016 319.156 43.9609C319.641 43.8047 320.07 43.5781 320.445 43.2812C320.82 42.9844 321.117 42.625 321.336 42.2031C321.555 41.7656 321.664 41.2734 321.664 40.7266C321.664 40.0859 321.453 39.5234 321.031 39.0391C320.625 38.5547 320.117 38.125 319.508 37.75C318.914 37.375 318.273 37.0469 317.586 36.7656C316.898 36.4688 316.289 36.2031 315.758 35.9688C314.836 35.5625 313.914 35.1406 312.992 34.7031C312.086 34.2656 311.266 33.75 310.531 33.1562C309.812 32.5469 309.219 31.8281 308.75 31C308.297 30.1719 308.07 29.1562 308.07 27.9531C308.07 26.75 308.367 25.7266 308.961 24.8828C309.57 24.0391 310.352 23.3516 311.305 22.8203C312.273 22.2734 313.352 21.8828 314.539 21.6484C315.727 21.3984 316.898 21.2734 318.055 21.2734C318.773 21.2734 319.531 21.3047 320.328 21.3672C321.141 21.4297 321.883 21.5391 322.555 21.6953C323.242 21.8359 323.805 22.0234 324.242 22.2578C324.695 22.4922 324.922 22.7734 324.922 23.1016C324.922 23.2266 324.875 23.3906 324.781 23.5938L323.188 26.6641C322.891 26.4766 322.484 26.2344 321.969 25.9375C321.469 25.625 320.898 25.3281 320.258 25.0469C319.617 24.7656 318.93 24.5234 318.195 24.3203C317.477 24.1172 316.742 24.0156 315.992 24.0156C314.914 24.0156 314.031 24.2656 313.344 24.7656C312.656 25.2656 312.312 25.9766 312.312 26.8984C312.312 27.6172 312.516 28.2422 312.922 28.7734C313.328 29.3047 313.859 29.7812 314.516 30.2031C315.188 30.6094 315.945 30.9844 316.789 31.3281C317.648 31.6562 318.523 32 319.414 32.3594C320.305 32.7188 321.172 33.1016 322.016 33.5078C322.875 33.9141 323.633 34.3906 324.289 34.9375C324.961 35.4688 325.5 36.0938 325.906 36.8125C326.312 37.5156 326.516 38.3516 326.516 39.3203C326.516 40.6953 326.219 41.8516 325.625 42.7891C325.031 43.7266 324.258 44.4922 323.305 45.0859C322.367 45.6641 321.312 46.0781 320.141 46.3281C318.984 46.5938 317.844 46.7266 316.719 46.7266C315.75 46.7266 314.719 46.6172 313.625 46.3984C312.531 46.1953 311.523 45.9375 310.602 45.625C309.68 45.2969 308.914 44.9453 308.305 44.5703C307.711 44.1953 307.414 43.8438 307.414 43.5156C307.414 43.3125 307.461 43.1172 307.555 42.9297L309.43 40.3281Z" fill="black"/>
</g>
<g filter="url(#filter1_d_5_4)">
<path d="M0.36 46L12.552 13.648H16.728L4.488 46H0.36ZM17.4694 46L29.6614 13.648H33.8374L21.5974 46H17.4694Z" fill="#E0AA8B"/>
</g>
<defs>
<filter id="filter0_d_5_4" x="47.5156" y="10" width="285" height="38.9141" filterUnits="userSpaceOnUse" color-interpolation-filters="sRGB">
<feFlood flood-opacity="0" result="BackgroundImageFix"/>
<feColorMatrix in="SourceAlpha" type="matrix" values="0 0 0 0 0 0 0 0 0 0 0 0 0 0 0 0 0 0 127 0" result="hardAlpha"/>
<feOffset dx="6" dy="2"/>
<feComposite in2="hardAlpha" operator="out"/>
<feColorMatrix type="matrix" values="0 0 0 0 1 0 0 0 0 1 0 0 0 0 1 0 0 0 1 0"/>
<feBlend mode="normal" in2="BackgroundImageFix" result="effect1_dropShadow_5_4"/>
<feBlend mode="normal" in="SourceGraphic" in2="effect1_dropShadow_5_4" result="shape"/>
</filter>
<filter id="filter1_d_5_4" x="0.360001" y="13.648" width="39.4774" height="34.352" filterUnits="userSpaceOnUse" color-interpolation-filters="sRGB">
<feFlood flood-opacity="0" result="BackgroundImageFix"/>
<feColorMatrix in="SourceAlpha" type="matrix" values="0 0 0 0 0 0 0 0 0 0 0 0 0 0 0 0 0 0 127 0" result="hardAlpha"/>
<feOffset dx="6" dy="2"/>
<feComposite in2="hardAlpha" operator="out"/>
<feColorMatrix type="matrix" values="0 0 0 0 1 0 0 0 0 1 0 0 0 0 1 0 0 0 1 0"/>
<feBlend mode="normal" in2="BackgroundImageFix" result="effect1_dropShadow_5_4"/>
<feBlend mode="normal" in="SourceGraphic" in2="effect1_dropShadow_5_4" result="shape"/>
</filter>
</defs>
</svg>
